<svg xmlns="http://www.w3.org/2000/svg" width="140" height="25" viewBox="0 0 140 25">
  <g id="Groupe_151589" data-name="Groupe 151589" transform="translate(-452 -331)">
    <g id="Groupe_151256" data-name="Groupe 151256" transform="translate(0 1)">
      <path id="Rectangle_137222" data-name="Rectangle 137222" d="M7,0H18.955A6.045,6.045,0,0,1,25,6.045V7a0,0,0,0,1,0,0H0A0,0,0,0,1,0,7V7A7,7,0,0,1,7,0Z" transform="translate(454 331)" fill="#ff9d19"/>
      <path id="Rectangle_137223" data-name="Rectangle 137223" d="M0,0H25a0,0,0,0,1,0,0V.955A6.045,6.045,0,0,1,18.955,7H7A7,7,0,0,1,0,0V0A0,0,0,0,1,0,0Z" transform="translate(454 348)" fill="#ff9d19"/>
      <rect id="Rectangle_137224" data-name="Rectangle 137224" width="29" height="6" rx="3" transform="translate(452 340)" fill="#ff9d19"/>
    </g>
    <text id="BurgerFood" transform="translate(490 349)" fill="#fff" font-size="18" font-family="Avenir-Black, Avenir" font-weight="800"><tspan x="0" y="0">BurgerFood</tspan></text>
  </g>
</svg>
